<svg width="18" height="17" viewBox="0 0 18 17" fill="none" xmlns="http://www.w3.org/2000/svg">
<path d="M16.65 6.04L11.81 5.62L9.91995 1.17C9.57995 0.36 8.41995 0.36 8.07995 1.17L6.18995 5.63L1.35995 6.04C0.479951 6.11 0.119951 7.21 0.789951 7.79L4.45995 10.97L3.35995 15.69C3.15995 16.55 4.08995 17.23 4.84995 16.77L8.99995 14.27L13.15 16.78C13.91 17.24 14.8399 16.56 14.6399 15.7L13.54 10.97L17.2099 7.79C17.8799 7.21 17.5299 6.11 16.65 6.04ZM8.99995 12.4L5.23995 14.67L6.23995 10.39L2.91995 7.51L7.29995 7.13L8.99995 3.1L10.71 7.14L15.09 7.52L11.77 10.4L12.77 14.68L8.99995 12.4Z" fill="black" fill-opacity="0.36"/>
</svg>
